<svg xmlns="http://www.w3.org/2000/svg" width="48.88" height="47.07" viewBox="0 0 48.88 47.07">
  <path id="Icon_simple-facebook" data-name="Icon simple-facebook" d="M47.88,23.135C47.88,10.358,37.162,0,23.94,0S0,10.358,0,23.135C0,34.683,8.754,44.254,20.2,45.989V29.823H14.121V23.135H20.2v-5.1c0-5.8,3.574-9,9.042-9a38.06,38.06,0,0,1,5.359.452v5.693H31.582c-2.974,0-3.9,1.783-3.9,3.613v4.34h6.64l-1.061,6.688H27.68V45.989C39.125,44.254,47.88,34.683,47.88,23.135Z" transform="translate(0.5 0.5)" fill="#e8eef2" stroke="#8cb6d5" stroke-width="1"/>
</svg>
