<svg xmlns="http://www.w3.org/2000/svg" width="44.595" height="41.154" viewBox="0 0 44.595 41.154">
  <path id="Icon_awesome-phone" data-name="Icon awesome-phone" d="M41.982,1.928,33.133.047a2.1,2.1,0,0,0-2.34,1.089L26.709,9.914a1.782,1.782,0,0,0,.587,2.194L32.452,16A30.4,30.4,0,0,1,17.375,29.884l-4.22-4.75a2.156,2.156,0,0,0-2.382-.541l-9.53,3.762A1.87,1.87,0,0,0,.051,30.519L2.093,38.67a2.013,2.013,0,0,0,1.991,1.458c21.791,0,39.48-16.263,39.48-36.366A1.919,1.919,0,0,0,41.982,1.928Z" transform="translate(0.53 0.526)" fill="#fff" stroke="rgba(0,0,0,0)" stroke-width="1"/>
</svg>
